<svg width="72" height="72" viewBox="0 0 72 72" fill="none" xmlns="http://www.w3.org/2000/svg">
<g clip-path="url(#clip0_0_117)">
<g clip-path="url(#clip1_0_117)">
<g clip-path="url(#clip2_0_117)">
<g clip-path="url(#clip3_0_117)">
<path d="M66.1715 37.7439C65.9547 36.614 64.9665 35.7969 63.8159 35.7963H61.4987L61.3283 34.7751C61.1583 33.7494 60.3502 32.948 59.3231 32.7867C59.0951 32.7507 58.8647 32.7267 58.6379 32.6955C59.0309 30.8609 58.7044 28.9455 57.7259 27.3447C58.2429 26.0036 58.1464 24.5034 57.4619 23.2397C56.7774 21.9759 55.5736 21.0755 54.1679 20.7759C53.2693 15.9662 49.0851 12.4701 44.1923 12.4406C44.0723 12.4406 43.9655 12.4563 43.8515 12.4599C43.0697 11.2321 41.7808 10.4172 40.3364 10.2376C38.8919 10.0579 37.4427 10.5322 36.3839 11.5311C35.0502 10.6641 33.4939 10.2019 31.9031 10.2003C29.34 10.2107 26.9243 11.4004 25.3535 13.4259C23.6094 12.9172 21.7286 13.2295 20.2424 14.2745C18.7561 15.3195 17.8259 16.9837 17.7143 18.7971C15.8823 19.5671 14.6903 21.3602 14.6891 23.3475C14.6929 23.6919 14.7331 24.035 14.8091 24.3711C13.189 26.8134 12.7656 29.8594 13.6583 32.6511C13.3367 32.6954 13.0079 32.7351 12.6983 32.7807C11.6659 32.9364 10.8506 33.7382 10.6775 34.7679L10.5071 35.7927H8.18393C7.03535 35.7934 6.04833 36.6079 5.82953 37.7355L0.574726 64.7139C0.369509 65.7704 0.647795 66.8634 1.3333 67.6931C2.01881 68.5229 3.03962 69.0024 4.11593 69.0003H29.1407C30.1343 70.6395 33.1535 71.4003 35.9999 71.4003C38.8163 71.4003 41.8067 70.6575 42.8291 69.0003H67.8839C68.96 69.0023 69.9805 68.523 70.666 67.6935C71.3515 66.864 71.6299 65.7714 71.4251 64.7151L66.1715 37.7439ZM18.3179 25.5195C17.3436 24.9336 16.8786 23.7707 17.1804 22.6746C17.4823 21.5785 18.4771 20.8175 19.6139 20.8131C20.4096 20.8107 21.1584 21.1889 21.6287 21.8307C21.8842 22.1749 22.304 22.3567 22.7299 22.3076C23.1558 22.2584 23.5231 21.9858 23.6935 21.5924C23.8639 21.1989 23.8114 20.7445 23.5559 20.4003C22.7411 19.3112 21.5062 18.6145 20.1527 18.4803C20.5105 16.7997 21.9925 15.5966 23.7107 15.5919C23.8571 15.5993 24.003 15.6153 24.1475 15.6399C24.051 15.8859 23.9669 16.1366 23.8955 16.3911C23.7462 17.0263 24.1318 17.6644 24.7636 17.8276C25.3954 17.9908 26.0418 17.6191 26.2187 16.9911C26.3552 16.4636 26.5648 15.9579 26.8415 15.4886C27.906 13.7054 29.8263 12.6095 31.9031 12.6003C33.0334 12.6053 34.1378 12.9388 35.0819 13.5603C34.9021 14.0656 34.8068 14.5971 34.7999 15.1335C34.7999 15.7962 35.3372 16.3335 35.9999 16.3335C36.6627 16.3335 37.1999 15.7962 37.1999 15.1335C37.1999 13.7394 38.3301 12.6093 39.7241 12.6093C41.1182 12.6093 42.2483 13.7394 42.2483 15.1335C42.2483 15.7962 42.7856 16.3335 43.4483 16.3335C44.1111 16.3335 44.6483 15.7962 44.6483 15.1335C44.6483 15.0411 44.6255 14.9535 44.6207 14.8611C48.0567 15.0731 50.9461 17.5155 51.7271 20.8682C51.1674 21.0312 50.6414 21.2934 50.1743 21.6423C49.8314 21.8995 49.6517 22.3201 49.7029 22.7458C49.7542 23.1714 50.0287 23.5374 50.4229 23.7058C50.8172 23.8742 51.2714 23.8195 51.6143 23.5623C52.5733 22.8523 53.8979 22.9089 54.7928 23.6981C55.6876 24.4873 55.9093 25.7945 55.3247 26.8347C55.0635 27.2939 54.6665 27.6611 54.1883 27.8859C53.6868 28.1287 53.4184 28.6847 53.5403 29.2284C53.6622 29.7721 54.1424 30.1604 54.6995 30.1659C54.8755 30.1661 55.0493 30.1272 55.2083 30.0518C55.5264 29.8977 55.8269 29.7099 56.1047 29.4915C56.725 31.2549 56.336 33.2163 55.0895 34.6095L55.0607 34.6395C53.4974 36.333 51.0035 36.7907 48.9407 35.7627C48.7387 35.6559 48.5446 35.5348 48.3599 35.4003C49.2438 34.1611 49.3659 32.5334 48.6767 31.1763C48.4838 30.7932 48.1012 30.5422 47.673 30.5177C47.2448 30.4932 46.8361 30.6991 46.6008 31.0577C46.3655 31.4163 46.3394 31.8732 46.5323 32.2563C46.9269 33.0494 46.6808 34.0119 45.9539 34.5183C45.5271 34.8024 44.9998 34.8923 44.5029 34.7656C44.006 34.6388 43.5861 34.3074 43.3475 33.8535C43.1557 33.47 42.7738 33.218 42.3458 33.1924C41.9177 33.1668 41.5086 33.3715 41.2724 33.7294C41.0362 34.0873 41.0089 34.544 41.2007 34.9275C41.9045 36.3481 43.3545 37.2453 44.9399 37.2411C45.4561 37.2376 45.967 37.137 46.4459 36.9447C46.8745 37.3199 47.3467 37.6422 47.8523 37.9047C49.5626 38.7912 51.5513 38.975 53.3951 38.4171C52.2093 40.0363 50.4345 41.1245 48.4535 41.4471C47.8372 41.5474 47.4009 42.1035 47.4501 42.726C47.4993 43.3484 48.0175 43.8292 48.6419 43.8315C48.7058 43.8314 48.7696 43.8266 48.8327 43.8171C49.5634 43.6906 50.2776 43.482 50.9615 43.1954C51.3312 43.849 51.6312 44.5396 51.8567 45.2559C51.898 45.3809 51.9191 45.5118 51.9191 45.6435C51.9188 46.1621 51.6091 46.6305 51.1319 46.8339C50.58 47.0473 49.9533 46.8789 49.5827 46.4174C48.6534 45.3261 47.4365 44.5175 46.0703 44.0835C43.4771 43.2147 42.4763 42.4383 42.0515 41.5935C42.6742 41.5158 43.2894 41.3873 43.8911 41.2095C44.301 41.0834 44.6125 40.7483 44.7082 40.3303C44.804 39.9123 44.6695 39.475 44.3554 39.1831C44.0413 38.8912 43.5954 38.789 43.1855 38.9151C42.5122 39.1216 41.8171 39.2493 41.1143 39.2955C39.7603 39.4013 38.4 39.196 37.1375 38.6955C36.6635 38.5106 36.1244 38.6448 35.7923 39.0303C34.0452 41.0372 31.0549 41.3783 28.9006 39.8164C26.7464 38.2545 26.1409 35.3064 27.5051 33.0219C27.7261 32.6529 27.7335 32.1941 27.5246 31.8183C27.3156 31.4424 26.9219 31.2066 26.492 31.1997C26.062 31.1928 25.6609 31.4157 25.4399 31.7847C25.1536 32.2719 24.9234 32.79 24.7535 33.3291C23.8086 33.2793 23.0634 32.5064 23.0483 31.5602V31.5303C23.0477 31.2136 22.9206 30.9103 22.6952 30.6879C22.4699 30.4655 22.165 30.3423 21.8483 30.3459C21.1827 30.3524 20.647 30.8946 20.6483 31.5602C20.6537 33.6884 22.2586 35.4721 24.3743 35.7015C24.3786 36.1037 24.4151 36.505 24.4835 36.9015C21.8042 37.4812 19.0252 36.5181 17.2792 34.4047C15.5332 32.2913 15.1118 29.3805 16.1867 26.8587C16.4552 27.1303 16.7549 27.3691 17.0795 27.5703C17.6464 27.9023 18.3749 27.7168 18.7139 27.1541C19.053 26.5913 18.8765 25.8606 18.3179 25.5146V25.5195ZM13.0379 35.1591C13.5911 35.0775 14.1623 35.0055 14.7299 34.9311C16.9486 38.4766 21.1921 40.1982 25.2539 39.2007C26.3453 41.2721 28.3396 42.7166 30.648 43.1078C32.9564 43.4991 35.3153 42.7923 37.0283 41.1963C37.8438 41.4395 38.6837 41.5916 39.5327 41.6499C40.1123 43.8483 41.7875 45.1803 45.3071 46.3599C46.2559 46.6573 47.1024 47.2148 47.7503 47.9691C48.4707 48.8257 49.5303 49.3235 50.6495 49.3311C51.139 49.3309 51.6234 49.2321 52.0739 49.0407C53.4342 48.4593 54.3166 47.1227 54.3167 45.6435C54.3178 45.2577 54.2562 44.8743 54.1343 44.5083C53.8645 43.6604 53.509 42.8422 53.0735 42.0663C55.1141 40.5993 56.5356 38.4254 57.0611 35.9679C57.3167 35.6642 57.5478 35.3408 57.7523 35.0007C58.1543 35.0523 58.5563 35.0979 58.9607 35.1651L63.2927 61.2219C54.8249 58.3943 45.6677 58.3943 37.1999 61.2219V46.2003C37.1999 45.5375 36.6627 45.0003 35.9999 45.0003C35.3372 45.0003 34.7999 45.5375 34.7999 46.2003V61.2267C26.3331 58.3965 17.176 58.3931 8.70713 61.2171L13.0379 35.1591ZM3.18113 66.1587C2.95438 65.8848 2.86195 65.5238 2.92913 65.1747L8.18393 38.1963H10.1039L6.33833 60.8271C6.20588 61.6508 6.50918 62.4844 7.14001 63.0304C7.77083 63.5764 8.6393 63.757 9.43553 63.5079C15.8327 61.4353 22.6481 61.0028 29.2559 62.2503L28.8983 66.6003H4.11593C3.75391 66.6005 3.41085 66.4384 3.18113 66.1587ZM35.9999 69.0003C33.1091 69.0003 31.4507 68.1459 31.2071 67.7655L31.6199 62.7854C32.9394 63.114 34.2307 63.547 35.4815 64.0803C35.6433 64.1582 35.8204 64.1992 35.9999 64.2003C36.18 64.2 36.3576 64.159 36.5195 64.0803C37.7696 63.5438 39.0605 63.108 40.3799 62.7771L40.7927 67.7643C40.5491 68.1459 38.8907 69.0003 35.9999 69.0003ZM68.8187 66.1587C68.589 66.4384 68.2459 66.6005 67.8839 66.6003H43.1051L42.7451 62.2419C49.3566 60.997 56.1749 61.4332 62.5739 63.5103C63.37 63.7562 64.2366 63.573 64.865 63.0259C65.4934 62.4789 65.7942 61.6458 65.6603 60.8235L61.8983 38.1975H63.8183L69.0743 65.1735C69.1409 65.5236 69.0471 65.8851 68.8187 66.1587Z" fill="black"/>
<path d="M32.023 27.822C31.5318 28.2664 31.4937 29.0249 31.9378 29.5164C32.9558 30.6403 34.3011 31.416 35.7838 31.734C35.1123 32.6802 34.0234 33.2417 32.863 33.24C32.2003 33.24 31.663 33.7772 31.663 34.44C31.663 35.1027 32.2003 35.64 32.863 35.64C35.3472 35.6499 37.5762 34.1156 38.4538 31.7916C41.4377 31.2971 43.8 29.0003 44.3782 26.0316C44.4676 25.6069 44.3207 25.1671 43.9942 24.8814C43.6676 24.5957 43.2122 24.5085 42.8032 24.6534C42.3942 24.7983 42.0953 25.1528 42.0214 25.5804C41.7861 26.818 41.072 27.9129 40.0342 28.6272C38.0377 29.9718 35.3601 29.6666 33.7174 27.9072C33.273 27.4159 32.5145 27.3778 32.023 27.822Z" fill="black"/>
<path d="M27.8398 26.5201C28.5026 26.5201 29.0398 25.9828 29.0398 25.3201C29.0398 24.4926 29.3686 23.699 29.9537 23.1139C30.5388 22.5288 31.3324 22.2 32.1598 22.2C32.8226 22.2 33.3598 21.6628 33.3598 21C33.3598 20.3373 32.8226 19.8 32.1598 19.8C29.1126 19.8034 26.6432 22.2728 26.6398 25.3201C26.6398 25.6383 26.7663 25.9435 26.9913 26.1686C27.2164 26.3936 27.5216 26.5201 27.8398 26.5201Z" fill="black"/>
<path d="M37.1999 3.0001V1.8001C37.1999 1.13736 36.6626 0.600098 35.9999 0.600098C35.3371 0.600098 34.7999 1.13736 34.7999 1.8001V3.0001C34.7999 3.66284 35.3371 4.2001 35.9999 4.2001C36.6626 4.2001 37.1999 3.66284 37.1999 3.0001Z" fill="black"/>
<path d="M55.692 9.21135L54.492 10.4113C54.1801 10.7126 54.0549 11.1588 54.1648 11.5784C54.2746 11.9979 54.6022 12.3256 55.0218 12.4354C55.4414 12.5452 55.8875 12.4201 56.1888 12.1081L57.3888 10.9081C57.7008 10.6069 57.8259 10.1607 57.716 9.74114C57.6062 9.32158 57.2786 8.99393 56.859 8.88411C56.4395 8.77429 55.9933 8.8994 55.692 9.21135Z" fill="black"/>
<path d="M16.6595 12.4597C17.1448 12.4596 17.5822 12.1673 17.7679 11.7189C17.9536 11.2706 17.851 10.7545 17.5079 10.4113L16.3079 9.21135C16.0066 8.8994 15.5605 8.77429 15.1409 8.88411C14.7213 8.99393 14.3937 9.32158 14.2839 9.74114C14.1741 10.1607 14.2992 10.6069 14.6111 10.9081L15.8111 12.1081C16.0361 12.3332 16.3413 12.4597 16.6595 12.4597Z" fill="black"/>
<path d="M25.8972 7.41008C26.0549 7.40974 26.211 7.37877 26.3568 7.31888C26.6509 7.19704 26.8846 6.96333 27.0064 6.66917C27.1281 6.37502 27.128 6.04454 27.006 5.75048L25.6272 2.42408C25.4693 2.01893 25.1045 1.73092 24.6738 1.67128C24.243 1.61163 23.8137 1.78967 23.5516 2.13666C23.2895 2.48364 23.2357 2.94526 23.4108 3.34328L24.7884 6.66968C24.9743 7.11799 25.4119 7.4102 25.8972 7.41008Z" fill="black"/>
<path d="M47.94 1.7748C47.3279 1.52161 46.6265 1.81217 46.3728 2.424L44.994 5.7504C44.8716 6.04461 44.8713 6.37539 44.9931 6.66983C45.1149 6.96426 45.3487 7.19818 45.6432 7.32C45.789 7.37989 45.9451 7.41087 46.1028 7.4112C46.5881 7.41133 47.0257 7.11911 47.2116 6.6708L48.5892 3.3444C48.7115 3.0502 48.7118 2.71942 48.59 2.42498C48.4683 2.13054 48.2344 1.89663 47.94 1.7748Z" fill="black"/>
<path d="M60.39 21.6985C60.5477 21.6982 60.7039 21.6668 60.8496 21.6061L64.1748 20.2285C64.5709 20.0645 64.8495 19.7017 64.9055 19.2766C64.9616 18.8516 64.7866 18.4289 64.4465 18.1678C64.1064 17.9068 63.6529 17.847 63.2568 18.0109L59.9304 19.3885C59.3995 19.6066 59.0974 20.1699 59.2094 20.7327C59.3213 21.2955 59.8161 21.7003 60.39 21.6985Z" fill="black"/>
<path d="M11.1503 21.6059C11.7627 21.8598 12.4649 21.5691 12.7187 20.9568C12.9726 20.3444 12.6819 19.6422 12.0695 19.3884L8.74312 18.0108C8.13075 17.7573 7.42882 18.0482 7.17532 18.6606C6.92182 19.2729 7.21275 19.9749 7.82512 20.2284L11.1503 21.6059Z" fill="black"/>
</g>
</g>
</g>
</g>
<defs>
<clipPath id="clip0_0_117">
<rect width="72" height="72" fill="white"/>
</clipPath>
<clipPath id="clip1_0_117">
<rect width="72" height="72" fill="white"/>
</clipPath>
<clipPath id="clip2_0_117">
<rect width="70.9823" height="70.8" fill="white" transform="translate(0.508652 0.600098)"/>
</clipPath>
<clipPath id="clip3_0_117">
<rect width="70.9823" height="70.8" fill="white" transform="translate(0.508652 0.600098)"/>
</clipPath>
</defs>
</svg>
